<?xml version="1.0" standalone="no"?>
<!DOCTYPE svg PUBLIC "-//W3C//DTD SVG 20010904//EN"
 "http://www.w3.org/TR/2001/REC-SVG-20010904/DTD/svg10.dtd">
<svg version="1.0" xmlns="http://www.w3.org/2000/svg"
 width="500.000000pt" height="500.000000pt" viewBox="0 0 500.000000 500.000000"
 preserveAspectRatio="xMidYMid meet">

<g transform="translate(0.000000,500.000000) scale(0.100000,-0.100000)"
fill="#000000" stroke="none">
<path d="M1390 3710 c0 -17 110 -262 152 -340 133 -243 283 -396 453 -460 36
-13 28 -7 -48 44 -151 101 -311 343 -443 668 l-39 98 -37 0 c-21 0 -38 -4 -38
-10z"/>
<path d="M4135 3602 c236 -131 410 -288 517 -468 98 -166 148 -326 209 -668
l34 -189 45 -33 c48 -36 62 -41 55 -21 -3 6 -25 122 -51 257 -25 135 -61 293
-80 352 -60 185 -145 335 -263 461 -93 101 -310 251 -449 313 -72 32 -79 30
-17 -4z"/>
<path d="M1114 3580 c-245 -66 -553 -290 -696 -506 -87 -131 -176 -339 -194
-454 l-6 -39 62 25 c119 49 301 41 398 -17 l34 -19 136 116 c76 65 146 124
156 133 21 17 -3 -19 -132 -203 l-83 -119 24 -26 c35 -38 81 -108 117 -179 17
-34 34 -62 38 -62 4 0 36 10 72 21 82 26 227 36 300 20 69 -15 167 -63 220
-108 59 -50 106 -125 136 -216 16 -48 30 -76 37 -73 141 60 263 61 382 2 63
-31 86 -50 135 -109 64 -78 145 -212 172 -286 19 -54 39 -59 49 -14 9 45 94
191 156 270 101 127 195 176 338 176 75 -1 100 -7 196 -47 13 -6 21 7 39 64
56 173 170 280 352 326 83 22 207 14 311 -19 l78 -25 31 61 c64 128 158 239
249 295 97 59 278 68 400 18 35 -14 65 -24 67 -21 2 2 -4 41 -13 87 -54 265
-175 489 -338 630 -194 167 -442 287 -627 304 l-69 7 -18 -44 c-33 -85 -121
-256 -177 -347 -181 -293 -389 -441 -682 -485 l-41 -7 -12 68 c-11 62 -10 70
10 111 13 29 23 72 26 123 l6 78 -41 0 c-27 0 -63 -12 -107 -35 -62 -32 -71
-34 -111 -25 -29 7 -59 7 -89 0 -43 -10 -49 -8 -88 18 -47 33 -98 52 -135 52
l-25 0 5 -93 c3 -60 11 -104 22 -126 15 -28 16 -40 7 -77 -6 -23 -11 -54 -11
-67 l0 -25 -72 14 c-356 68 -588 299 -806 802 l-31 72 -43 -1 c-24 0 -75 -9
-114 -19z"/>
<path d="M2375 3190 c3 -5 14 -10 23 -10 15 0 15 2 2 10 -20 13 -33 13 -25 0z"/>
<path d="M2910 3195 c-1 0 -5 -58 -10 -130 -5 -71 -12 -138 -15 -147 -9 -23 3
-23 58 1 l44 19 8 116 c4 63 4 119 1 124 -4 7 -80 22 -86 17z"/>
<path d="M347 2476 c-39 -14 -227 -134 -227 -145 -1 -3 -5 -25 -9 -49 -7 -34
-6 -42 5 -38 7 3 75 47 151 98 144 96 195 117 288 119 l50 1 -35 13 c-46 18
-175 18 -223 1z"/>
<path d="M4328 2456 c-95 -34 -198 -168 -269 -350 -17 -43 -27 -82 -22 -87 4
-4 24 -15 44 -23 l36 -15 28 72 c69 178 153 301 241 353 33 19 66 28 122 33
l77 7 -40 12 c-52 16 -170 15 -217 -2z"/>
<path d="M1205 2133 c-61 -6 -141 -26 -196 -50 -56 -24 -57 -26 -46 -52 6 -14
12 -27 13 -29 1 -2 39 13 85 33 107 47 178 65 259 66 65 0 65 0 30 13 -41 15
-102 23 -145 19z"/>
<path d="M3515 2087 c-70 -34 -120 -80 -150 -137 -9 -16 -33 -91 -55 -167 -43
-151 -45 -138 22 -177 l27 -16 14 52 c9 29 25 89 37 133 46 166 94 235 199
284 48 22 70 26 148 26 50 0 90 2 88 4 -12 11 -130 31 -190 31 -60 0 -81 -5
-140 -33z"/>
<path d="M1915 1775 c-5 -2 -26 -6 -46 -9 -20 -4 -64 -25 -98 -48 -58 -39 -61
-43 -55 -72 3 -17 9 -35 14 -39 4 -4 43 16 86 46 106 73 120 79 184 87 50 6
53 7 30 17 -29 12 -100 24 -115 18z"/>
<path d="M2876 1755 c-58 -20 -85 -43 -144 -121 -47 -62 -73 -109 -146 -264
-17 -36 -32 -50 -73 -71 l-52 -27 28 -11 c38 -16 60 -17 102 -3 50 17 85 57
114 132 48 122 143 258 216 310 16 12 57 27 91 34 l63 13 -40 12 c-53 15 -111
13 -159 -4z"/>
</g>
</svg>
