<?xml version="1.0" standalone="no"?>
<!DOCTYPE svg PUBLIC "-//W3C//DTD SVG 20010904//EN"
 "http://www.w3.org/TR/2001/REC-SVG-20010904/DTD/svg10.dtd">
<svg version="1.0" xmlns="http://www.w3.org/2000/svg"
 width="500.000000pt" height="500.000000pt" viewBox="0 0 500.000000 500.000000"
 preserveAspectRatio="xMidYMid meet">

<g transform="translate(0.000000,500.000000) scale(0.100000,-0.100000)"
fill="#000000" stroke="none">
<path d="M3200 4624 c-248 -14 -629 -88 -742 -145 -50 -25 -123 -92 -144 -132
-20 -37 -10 -67 22 -67 17 0 31 -12 50 -39 35 -54 79 -72 193 -80 84 -6 91 -8
56 -15 -388 -77 -475 -103 -578 -173 -158 -107 -513 -363 -597 -430 -367 -293
-591 -634 -607 -923 -7 -117 -3 -121 102 -125 l74 -3 7 33 c3 18 1 42 -6 54
-33 62 83 245 271 426 111 107 139 131 369 310 96 75 193 151 215 168 115 91
370 288 525 404 96 73 202 157 235 187 60 54 60 54 45 82 -18 33 -74 67 -145
89 -61 18 -137 63 -130 76 4 5 -2 6 -11 2 -15 -6 -15 -2 4 24 32 46 40 50 178
97 202 69 297 81 639 81 265 0 299 -2 400 -23 139 -29 232 -66 333 -129 l27
-17 -19 22 c-50 58 -199 120 -367 153 -99 19 -144 22 -343 21 -242 -1 -378
-13 -542 -47 -13 -3 -24 1 -27 9 -4 10 17 18 84 31 49 9 96 14 105 11 8 -3 13
-2 10 3 -17 26 472 52 629 32 119 -14 232 -45 310 -82 108 -53 235 -184 235
-244 0 -8 5 -14 12 -12 29 6 37 -139 12 -224 -9 -30 -31 -83 -50 -119 -22 -41
-27 -56 -14 -40 37 44 100 184 110 244 5 33 14 62 20 66 12 7 11 76 -1 101 -5
11 -17 15 -32 12 -20 -4 -29 4 -55 44 -89 139 -246 228 -470 268 -88 15 -286
25 -392 19z m-585 -550 c-16 -14 -93 -72 -170 -130 -408 -304 -480 -359 -863
-657 -192 -149 -252 -192 -252 -181 0 9 34 39 180 156 75 61 115 99 100 95
-22 -5 -20 -1 15 30 38 34 130 101 188 138 26 17 27 17 21 -1 -5 -17 -4 -17
11 1 9 11 19 20 23 20 11 1 78 47 207 144 66 49 180 132 254 183 73 51 163
118 200 149 62 52 99 78 111 78 3 0 -8 -11 -25 -25z"/>
<path d="M4094 4414 c3 -9 6 -18 6 -20 0 -3 4 -3 10 1 11 7 2 35 -12 35 -6 0
-7 -7 -4 -16z"/>
<path d="M3655 3100 c185 -23 191 -23 177 -9 -9 10 -44 14 -125 15 -92 2 -101
1 -52 -6z"/>
<path d="M3485 3060 c-19 -6 -5 -7 40 -4 46 4 86 0 118 -9 55 -18 62 -12 12 9
-37 15 -120 17 -170 4z"/>
<path d="M3435 3040 c11 -5 27 -9 35 -9 9 0 8 4 -5 9 -11 5 -27 9 -35 9 -9 0
-8 -4 5 -9z"/>
<path d="M3390 3031 c10 -7 7 -10 -15 -9 -50 1 -256 -89 -360 -157 -49 -32
-38 -29 40 11 121 63 343 134 418 134 15 0 27 3 27 8 0 4 -12 7 -27 7 -16 0
-44 4 -63 8 -23 4 -30 4 -20 -2z"/>
<path d="M4009 3000 c-9 -5 -38 -14 -65 -20 -117 -26 -123 -29 -145 -72 -24
-48 -95 -121 -159 -165 -25 -17 -121 -74 -214 -127 -379 -218 -650 -400 -769
-519 -48 -48 -85 -92 -82 -97 4 -6 1 -9 -5 -8 -7 2 -14 -8 -16 -21 -3 -14 -7
-27 -11 -30 -3 -3 -3 4 0 17 3 15 1 22 -6 19 -7 -2 -12 -8 -13 -13 0 -5 -4
-17 -9 -27 -12 -27 1 -31 32 -10 61 43 385 235 389 231 2 -3 -44 -33 -104 -68
-178 -105 -282 -174 -279 -185 2 -5 16 -11 30 -13 15 -2 27 -7 27 -11 0 -4 23
-4 51 0 57 9 109 37 90 48 -7 5 49 40 136 86 285 152 372 193 441 205 37 7 99
20 137 30 135 35 251 53 345 52 103 0 164 17 158 46 -5 27 -68 34 -253 29
-220 -7 -336 -31 -553 -113 -105 -41 -133 -40 -76 0 181 128 309 213 364 241
85 44 438 270 492 316 55 46 95 104 103 152 8 39 -2 47 -36 27z m-59 -82 c0
-7 -7 -22 -15 -32 -14 -19 -15 -18 -15 12 0 22 5 32 15 32 8 0 15 -6 15 -12z
m-1055 -688 c-3 -5 -12 -10 -18 -10 -7 0 -6 4 3 10 19 12 23 12 15 0z"/>
<path d="M3695 2980 c-3 -5 -1 -10 4 -10 6 0 11 5 11 10 0 6 -2 10 -4 10 -3 0
-8 -4 -11 -10z"/>
<path d="M3701 2918 c-56 -81 -122 -128 -375 -267 -202 -111 -299 -174 -238
-155 18 6 -13 -26 -58 -59 -35 -25 -5 -9 60 32 30 19 144 83 255 144 203 111
271 156 337 224 35 36 75 123 57 123 -4 0 -21 -19 -38 -42z"/>
<path d="M640 2357 c0 -30 20 -76 44 -102 34 -36 34 -15 0 59 -24 52 -44 72
-44 43z"/>
<path d="M3682 2256 c-160 -31 -326 -100 -542 -226 -278 -162 -386 -210 -478
-210 -26 0 -41 -4 -37 -10 4 -6 -4 -6 -22 1 -26 9 -25 7 12 -29 81 -79 130
-87 261 -42 78 27 266 127 394 210 58 38 117 74 133 81 15 7 27 18 27 25 0 7
6 15 13 17 9 4 8 6 -2 6 -7 1 -55 -20 -105 -45 -162 -83 -188 -77 -60 14 92
66 236 135 340 164 59 16 108 21 189 21 121 0 177 -14 256 -64 54 -34 63 -36
49 -9 -43 80 -258 128 -428 96z"/>
<path d="M858 2241 c-9 -9 -24 -22 -33 -30 -39 -32 21 -117 88 -124 21 -3 48
-14 60 -25 97 -91 339 -127 547 -82 51 12 114 20 139 18 40 -3 46 -6 49 -26 2
-13 -5 -33 -15 -44 -18 -20 -17 -20 22 -5 22 8 75 25 117 37 129 39 120 7 -25
-90 -279 -188 -527 -289 -1008 -410 -189 -48 -209 -55 -209 -75 0 -18 39 -35
77 -35 25 0 25 -1 9 -19 -9 -10 -31 -21 -48 -25 -27 -5 -29 -8 -17 -22 19 -23
114 -82 184 -114 167 -78 563 -202 745 -234 142 -25 152 -27 245 -36 119 -11
172 -19 216 -31 64 -16 337 1 479 32 25 5 54 11 65 13 46 8 75 19 75 27 0 11
10 12 -155 -6 -266 -28 -484 -16 -759 41 -367 76 -712 200 -850 304 -31 23
-56 48 -56 56 0 23 47 40 301 112 134 38 282 85 329 103 200 79 400 199 506
305 66 66 124 169 124 221 0 16 5 34 11 40 6 6 8 20 5 30 -9 28 -63 19 -101
-17 -20 -19 -45 -29 -75 -33 -25 -3 -94 -13 -155 -23 -81 -14 -163 -19 -310
-19 -191 1 -204 2 -281 28 -79 26 -185 86 -213 121 -8 9 -26 25 -40 35 -24 16
-27 16 -43 2z m1174 -119 c-19 -6 -44 6 -37 18 4 7 14 6 28 -2 14 -7 17 -13 9
-16z m-178 -287 c-171 -154 -374 -254 -720 -355 -208 -61 -150 -26 91 54 99
33 224 84 300 122 122 62 346 201 360 225 4 5 10 8 13 4 3 -3 -16 -26 -44 -50z"/>
<path d="M1172 2218 c9 -29 108 -75 184 -87 149 -25 472 -12 536 20 21 11 52
19 70 19 43 0 24 18 -22 21 -19 1 -78 -3 -130 -11 -118 -16 -408 0 -544 30
-106 24 -99 23 -94 8z"/>
<path d="M3770 2193 c-8 -2 -29 -11 -47 -19 -17 -8 -38 -14 -46 -14 -9 0 -18
-4 -21 -9 -3 -4 18 -4 47 1 29 6 96 8 150 6 53 -2 97 -2 97 -1 0 2 -15 12 -32
23 -32 19 -110 26 -148 13z"/>
<path d="M3715 2126 c-38 -8 -108 -28 -155 -45 -80 -29 -268 -128 -335 -175
-16 -12 -38 -25 -47 -31 -10 -5 -55 -33 -100 -61 -117 -72 -200 -112 -266
-128 -31 -8 -48 -15 -37 -15 78 -3 230 66 490 224 290 175 404 220 562 220
104 0 110 9 12 19 -30 3 -85 -1 -124 -8z"/>
<path d="M4021 2034 c0 -11 3 -14 6 -6 3 7 2 16 -1 19 -3 4 -6 -2 -5 -13z"/>
<path d="M4533 1991 c5 -23 2 -42 -10 -62 -18 -30 -48 -42 -137 -57 -39 -7
-41 -10 -61 -67 -26 -76 -86 -164 -162 -236 -107 -104 -453 -341 -656 -449
-597 -318 -1316 -406 -2042 -248 -299 64 -537 152 -779 287 -122 68 -146 78
-146 59 0 -43 195 -199 355 -284 329 -175 875 -278 1380 -261 240 8 547 52
641 92 21 9 122 48 223 86 102 39 261 100 354 135 93 36 176 64 185 62 15 -3
-83 -55 -241 -126 -41 -18 -54 -28 -45 -35 9 -6 6 -7 -10 -4 -12 3 -20 2 -18
-2 2 -3 -17 -15 -42 -25 -120 -46 -73 -43 66 4 45 16 80 24 77 19 -10 -15 -2
-12 96 36 51 25 103 45 115 45 12 0 24 7 28 15 3 8 11 15 17 15 7 0 5 -8 -5
-19 -10 -11 -15 -24 -12 -29 7 -12 -66 -163 -116 -237 -23 -33 -80 -105 -127
-160 l-86 -100 76 67 c114 102 224 229 328 382 68 99 77 136 35 136 l-26 0 34
27 c77 63 260 233 351 327 133 138 128 91 -14 -126 -35 -54 -93 -144 -129
-200 -101 -160 -378 -429 -655 -638 -142 -106 -148 -114 -45 -50 94 58 252
162 260 170 3 3 32 25 65 49 150 111 329 282 460 439 15 18 30 30 33 27 3 -2
-3 -14 -13 -25 -10 -11 -15 -23 -12 -26 4 -4 9 1 13 10 3 9 11 16 16 16 12 0
54 43 78 79 31 47 110 139 110 128 0 -14 -108 -179 -159 -242 -82 -103 -253
-271 -358 -354 -106 -83 -124 -103 -30 -35 156 114 345 296 467 450 131 164
266 421 302 572 40 169 34 332 -14 376 l-21 20 6 -33z"/>
<path d="M1390 1919 c-80 -9 -147 -18 -150 -19 -3 -1 9 -6 25 -11 20 -6 4 -7
-50 -4 -44 3 -91 8 -105 11 -14 4 -22 4 -19 0 13 -14 179 -36 264 -34 l90 1
-65 7 c-62 6 -60 7 37 8 85 2 104 -1 111 -14 5 -9 15 -14 21 -10 6 4 9 11 6
15 -2 5 7 19 20 31 49 46 41 47 -185 19z"/>
<path d="M1625 1866 c-51 -16 -81 -33 -110 -61 -44 -43 -205 -127 -370 -194
-120 -49 -106 -52 36 -10 267 79 590 238 565 277 -10 17 -41 14 -121 -12z"/>
<path d="M3800 1548 c-83 -76 -222 -181 -326 -246 -158 -98 -444 -229 -609
-278 -80 -24 -48 -29 56 -9 126 24 202 50 344 119 208 102 379 217 511 343 53
50 102 119 92 128 -2 1 -32 -24 -68 -57z"/>
<path d="M398 1275 c2 -16 8 -39 13 -50 6 -17 8 -17 8 -3 1 11 6 15 16 12 11
-5 15 1 15 20 0 21 -5 26 -24 26 -14 0 -26 6 -29 13 -2 6 -2 -1 1 -18z"/>
<path d="M4081 966 c-7 -8 -8 -17 -3 -19 4 -3 13 3 20 14 14 22 0 26 -17 5z"/>
<path d="M3400 850 c-19 -11 -30 -19 -25 -19 6 0 26 8 45 19 19 11 31 19 25
19 -5 0 -26 -8 -45 -19z"/>
<path d="M3669 523 c-13 -16 -12 -17 4 -4 16 13 21 21 13 21 -2 0 -10 -8 -17
-17z"/>
</g>
</svg>
